<svg xmlns="http://www.w3.org/2000/svg" viewBox="0 0 256 256">
  <defs>
    <filter id="s" x="-30%" y="-30%" width="160%" height="160%">
      <feDropShadow dx="0" dy="12" stdDeviation="10" flood-color="#000" flood-opacity=".45"/>
    </filter>
    <linearGradient id="g" x1="0" x2="1" y1="0" y2="1">
      <stop offset="0" stop-color="#211409"/>
      <stop offset="1" stop-color="#0e0803"/>
    </linearGradient>
  </defs>
  <rect width="256" height="256" rx="42" fill="url(#g)" opacity=".02"/>
  <g filter="url(#s)">
  <path d="M55 106c0-38 32-69 73-69s73 31 73 69v73c0 20-16 36-36 36H91c-20 0-36-16-36-36v-73z" fill="#d99a4d"/>
  <path d="M72 113c0-27 25-50 56-50s56 23 56 50v63c0 12-10 22-22 22H94c-12 0-22-10-22-22v-63z" fill="#f3c178"/>
  <path d="M97 93c-7 18-7 35 0 51m31-60c-7 23-7 46 0 69m31-60c7 18 7 35 0 51" fill="none" stroke="#b77635" stroke-width="8" stroke-linecap="round" opacity=".65"/>
</g>
</svg>