<svg xmlns="http://www.w3.org/2000/svg" viewBox="0 0 256 256">
  <defs>
    <filter id="s" x="-30%" y="-30%" width="160%" height="160%">
      <feDropShadow dx="0" dy="12" stdDeviation="10" flood-color="#000" flood-opacity=".45"/>
    </filter>
    <linearGradient id="g" x1="0" x2="1" y1="0" y2="1">
      <stop offset="0" stop-color="#201812"/>
      <stop offset="1" stop-color="#0e0b08"/>
    </linearGradient>
  </defs>
  <rect width="256" height="256" rx="42" fill="url(#g)" opacity=".02"/>
  <g filter="url(#s)">
  <path d="M72 91h100v70a45 45 0 0 1-45 45H117a45 45 0 0 1-45-45V91z" fill="#f5f1e8"/>
  <path d="M85 105h74v56a32 32 0 0 1-32 32h-10a32 32 0 0 1-32-32v-56z" fill="#7a4a2a"/>
  <path d="M172 113h18c22 0 22 42 0 42h-18" fill="none" stroke="#f5f1e8" stroke-width="13" stroke-linecap="round"/>
  <path d="M97 57c-12 14 9 18-3 32m34-32c-12 14 9 18-3 32m34-32c-12 14 9 18-3 32" fill="none" stroke="#d8dde6" stroke-width="8" stroke-linecap="round" opacity=".85"/>
</g>
</svg>