<svg xmlns="http://www.w3.org/2000/svg" viewBox="0 0 256 256">
  <defs>
    <filter id="s" x="-30%" y="-30%" width="160%" height="160%">
      <feDropShadow dx="0" dy="12" stdDeviation="10" flood-color="#000" flood-opacity=".45"/>
    </filter>
    <linearGradient id="g" x1="0" x2="1" y1="0" y2="1">
      <stop offset="0" stop-color="#200c07"/>
      <stop offset="1" stop-color="#0f0402"/>
    </linearGradient>
  </defs>
  <rect width="256" height="256" rx="42" fill="url(#g)" opacity=".02"/>
  <g filter="url(#s)">
  <rect x="83" y="91" width="82" height="122" rx="15" fill="#e4442e"/>
  <rect x="93" y="79" width="62" height="25" rx="7" fill="#bfc7d3"/>
  <rect x="112" y="58" width="45" height="31" rx="8" fill="#858f9c"/>
  <path d="M126 70c1-23 34-30 47-7 11 19-1 34-12 47-22-14-37-23-35-40z" fill="#ff9c2e"/>
  <path d="M143 55c11 15 5 26-4 38 23-8 34-22 23-43-7-14-18-25-19-39-13 15-15 31 0 44z" fill="#ffdb45"/>
  <path d="M101 117h46" stroke="#ff876f" stroke-width="8" stroke-linecap="round" opacity=".75"/>
</g>
</svg>